PathFileType	4	(X/Y/Z)	C:\Users\dbl\Desktop\20210112(1)\20210112\bx_y_5_1802.trc
DataRate	CameraRate	NumFrames	NumMarkers	Units	OrigDataRate	OrigDataStartFrame	OrigNumFrames
50.00	50.00	       4	43	mm	50.00	240	       478
Frame#	Time	Top.Head			R.Acromium			L.Acromium			Sternum			R.ASIS			L.ASIS			V.Sacral			R.Thigh.Upper			R.Thigh.Front			R.Thigh.Rear			R.Knee.Lat			R.Knee.Med			R.Shank.Upper			R.Shank.Front			R.Shank.Rear			R.Ankle.Lat			R.Midfoot.Lat			R.Toe.Lat			R.Toe.Tip			R.Toe.Med			R.Ankle.Med			R.Midfoot.Sup			R.Heel			L.Thigh.Upper			L.Thigh.Front			L.Thigh.Rear			L.Knee.Lat			L.Knee.Med			L.Shank.Upper			L.Shank.Front			L.Shank.Rear			L.Ankle.Lat			L.Midfoot.Lat			L.Toe.Lat			L.Toe.Tip			L.Toe.Med			L.Ankle.Med			L.Midfoot.Sup			L.Heel			origin1 front left			origin2 front right			origin 3 back right			origin 4 back leftt			
		X1	Y1	Z1	X2	Y2	Z2	X3	Y3	Z3	X4	Y4	Z4	X5	Y5	Z5	X6	Y6	Z6	X7	Y7	Z7	X8	Y8	Z8	X9	Y9	Z9	X10	Y10	Z10	X11	Y11	Z11	X12	Y12	Z12	X13	Y13	Z13	X14	Y14	Z14	X15	Y15	Z15	X16	Y16	Z16	X17	Y17	Z17	X18	Y18	Z18	X19	Y19	Z19	X20	Y20	Z20	X21	Y21	Z21	X22	Y22	Z22	X23	Y23	Z23	X24	Y24	Z24	X25	Y25	Z25	X26	Y26	Z26	X27	Y27	Z27	X28	Y28	Z28	X29	Y29	Z29	X30	Y30	Z30	X31	Y31	Z31	X32	Y32	Z32	X33	Y33	Z33	X34	Y34	Z34	X35	Y35	Z35	X36	Y36	Z36	X37	Y37	Z37	X38	Y38	Z38	X39	Y39	Z39	X40	Y40	Z40	X41	Y41	Z41	X42	Y42	Z42	X43	Y43	Z43	

240	4.780	-634.15338	102.33420	1842.18884	-660.92841	-89.51074	1543.89575	-675.56635	267.68866	1534.58911	-609.79352	82.83762	1413.73547	-670.63843	-29.87526	1053.50378	-663.43921	189.45622	1076.74133	-870.27661	86.74456	1046.45264	-706.72369	-85.72398	859.10168	-636.28345	-25.13062	819.22894	-713.05023	-64.10840	707.62195	-703.37634	-41.52784	614.91357	-672.86603	66.53811	580.43073	-708.46045	-36.71490	566.60205	-655.24792	1.08823	519.62463	-760.44507	-38.57316	488.04892	-768.66565	-4.88867	206.14862	-667.59454	-71.27295	159.19186	-625.38672	-83.41953	157.09804	-561.41882	-44.33527	162.70309	-602.49481	14.79876	169.10844	-711.91833	74.28648	216.83150	-672.82043	52.21346	160.96899	-791.55359	58.27507	176.11752	-690.20923	270.97794	884.01044	-630.62280	202.64288	843.65857	-708.24213	267.69388	748.02600	-706.41718	246.63600	633.70654	-655.28131	144.15718	578.86359	-698.91498	243.09171	575.66302	-642.72021	205.78804	532.18201	-743.95343	251.55891	504.37674	-769.36401	222.95909	205.32997	-667.61737	300.66104	158.81175	-630.37683	309.39203	160.25380	-562.46692	264.50711	165.75591	-595.16705	226.99231	173.97112	-706.84998	153.54868	215.01216	-674.10614	175.73761	157.23734	-793.88586	171.56818	185.00273	-528.19073	304.00620	146.24953	-517.72955	-72.52770	142.88765	-875.98450	-78.87646	141.20956	-882.56470	296.14468	144.62305	
241	4.800	-627.58813	101.73505	1838.95178	-657.54034	-89.76888	1540.90076	-671.75928	267.37054	1532.09741	-608.28339	82.43075	1410.30200	-674.21436	-30.28049	1052.21582	-667.03284	189.69411	1073.97156	-873.87604	86.66305	1045.24817	-708.97302	-86.55941	858.39917	-637.95959	-25.97121	819.44067	-712.93024	-65.12810	706.75806	-701.75873	-42.91699	614.58734	-670.86212	65.13805	580.24591	-706.63818	-38.01905	565.87830	-653.59283	0.04142	518.83008	-758.60333	-39.63949	487.70459	-768.54388	-5.07114	206.05534	-667.66895	-71.41109	159.09343	-625.34778	-83.47610	157.06720	-561.42725	-44.38992	162.73631	-602.50610	14.71841	169.17358	-711.83392	74.11877	216.62102	-672.78766	52.14536	160.95886	-791.58435	58.21618	176.19025	-691.96600	271.07312	883.21722	-632.09790	202.32332	843.56793	-707.33875	268.13260	746.94568	-703.19702	247.39511	632.74518	-651.49762	145.24783	578.23285	-695.27765	244.10226	575.12531	-639.15820	206.81529	531.33618	-740.67242	252.33571	503.98837	-769.16461	222.96896	205.37396	-667.58832	300.65262	158.82196	-630.35889	309.41458	160.26161	-562.47833	264.50351	165.67769	-595.09991	227.01094	174.00633	-706.56848	153.62198	214.84624	-674.05823	175.79402	157.20876	-793.70221	171.44298	185.11385	-528.17676	304.04694	146.30753	-517.74176	-72.59005	142.90999	-875.98749	-78.84943	141.23801	-882.55090	296.16068	144.64682	
242	4.820	-620.68506	101.21708	1835.31775	-654.03021	-90.01634	1537.55286	-667.85175	267.14001	1529.36389	-606.98975	82.24024	1406.49341	-677.83990	-30.80362	1050.97668	-670.72815	189.97580	1071.08191	-877.59821	86.62487	1043.86682	-711.23749	-87.30449	857.56995	-639.68945	-26.86897	819.52698	-712.92731	-66.25761	705.79779	-699.94421	-44.22107	614.20715	-668.58899	63.71500	580.01056	-704.61060	-39.35544	565.14496	-651.82672	-1.00729	517.94568	-756.63043	-40.73582	487.35559	-768.38000	-5.23973	206.03516	-667.71759	-71.51359	159.02258	-625.33264	-83.49580	157.03616	-561.41205	-44.42052	162.75261	-602.55408	14.64636	169.23715	-711.69995	73.97430	216.45204	-672.77570	52.09344	160.94670	-791.57733	58.18079	176.25291	-693.99634	271.05225	882.14984	-633.71460	202.13255	843.25787	-706.83087	268.62088	745.80072	-700.49835	248.06410	631.78552	-648.25214	146.27763	577.57489	-692.11450	245.04149	574.63519	-636.08527	207.84354	530.56952	-737.86755	253.03209	503.52151	-769.00616	222.94229	205.39931	-667.55249	300.62064	158.85120	-630.33698	309.46765	160.28755	-562.48792	264.50034	165.61310	-595.00153	227.01233	174.04535	-706.28510	153.73961	214.57289	-674.03448	175.85738	157.17448	-793.57031	171.33571	185.21078	-528.17572	304.11465	146.36205	-517.74127	-72.63092	142.91568	-876.00256	-78.82586	141.25584	-882.55627	296.18503	144.65746	
243	4.840	-613.49182	100.76171	1831.31067	-650.42474	-90.30070	1533.88611	-663.89130	266.89526	1526.35010	-605.96082	82.12096	1402.33032	-681.74036	-31.37181	1049.79663	-674.52478	190.30205	1068.07166	-881.47327	86.65415	1042.37952	-713.50531	-87.91827	856.63898	-641.49335	-27.69533	819.48395	-712.94592	-67.43127	704.83954	-697.98547	-45.37512	613.72687	-666.11157	62.27208	579.70856	-702.31903	-40.66396	564.44702	-649.87140	-2.10372	517.07025	-754.58948	-41.81087	487.03491	-768.20618	-5.40788	206.09604	-667.73181	-71.56215	158.98151	-625.31610	-83.50323	157.00531	-561.36841	-44.42851	162.71350	-602.61969	14.61904	169.26782	-711.43939	73.92628	216.43690	-672.78497	52.07559	160.94444	-791.52728	58.18082	176.33134	-696.34741	271.01846	880.96729	-635.51581	202.17581	842.85760	-706.80725	269.23776	744.70502	-698.38495	248.71596	630.89404	-645.57770	147.29057	576.98694	-689.47394	245.90587	574.09729	-633.52368	208.79916	529.91040	-735.59222	253.67279	503.03690	-768.85889	222.94217	205.39027	-667.52728	300.58057	158.89464	-630.32196	309.52701	160.31204	-562.47601	264.53152	165.61288	-594.92847	227.01439	174.06328	-705.91809	153.85536	214.27023	-674.03467	175.89909	157.14705	-793.47705	171.25282	185.30003	-528.19214	304.17294	146.37973	-517.69513	-72.60092	142.91972	-876.01801	-78.81979	141.25500	-882.57404	296.19385	144.64091	
